<?xml version="1.0" encoding="UTF-8"?>
<svg width="81px" height="80px" viewBox="0 0 81 80" version="1.1" xmlns="http://www.w3.org/2000/svg" xmlns:xlink="http://www.w3.org/1999/xlink">
    <!-- Generator: Sketch 48.1 (47250) - http://www.bohemiancoding.com/sketch -->
    <title>icon-map</title>
    <desc>Created with Sketch.</desc>
    <defs>
        <linearGradient x1="100%" y1="0%" x2="-34.1911765%" y2="134.855143%" id="linearGradient-1">
            <stop stop-color="#78C1FF" offset="0%"></stop>
            <stop stop-color="#7A4FF6" offset="100%"></stop>
        </linearGradient>
    </defs>
    <g id="Knowledge-Base-Landing-Page" stroke="none" stroke-width="1" fill="none" fill-rule="evenodd" transform="translate(-703.000000, -468.000000)">
        <g id="Featured-Cards" transform="translate(77.000000, 341.000000)" fill="url(#linearGradient-1)" fill-rule="nonzero">
            <g id="Guides-Feature-Card" transform="translate(578.000000, 86.000000)">
                <path d="M126.018621,53.4838859 L102.012891,41.4810212 C100.845946,40.9809018 99.5122945,40.9809018 98.5120557,41.4810212 L76.3400973,52.6503536 L54.0014324,41.4810212 C52.6677807,40.8141954 51.0007162,40.8141954 49.833771,41.6477276 C48.6668258,42.3145534 48,43.6482051 48,44.9818567 L48,104.99618 C48,106.496538 48.8335323,107.83019 50.1671839,108.497016 L74.1729134,120.499881 C75.3398585,121 76.6735102,121 77.6737489,120.499881 L100.012414,109.330548 L122.184372,120.499881 C122.684492,120.833294 123.351317,121 124.018143,121 C124.684969,121 125.518501,120.833294 126.185327,120.333174 C127.352272,119.666348 128.019098,118.332697 128.019098,116.999045 L128.019098,56.9847214 C128.019098,55.4843634 127.352272,54.1507117 126.018621,53.4838859 Z M119.683775,61.1523828 L119.683775,92.8266092 C119.683775,94.6603802 118.016711,95.9940318 116.349646,95.327206 C110.181508,92.9933156 115.182701,82.6575154 110.681627,76.989496 C106.513966,71.8215959 101.179359,77.1562024 96.0114589,68.9875862 C91.1769717,61.1523828 97.6785235,55.4843634 103.679956,52.4836472 C104.513488,52.1502343 105.34702,52.1502343 106.013846,52.4836472 L118.350124,58.651786 C119.350363,59.1519054 119.683775,60.1521441 119.683775,61.1523828 Z M86.1757781,107.496777 C85.1755394,107.996897 84.0085942,107.83019 83.1750619,107.163364 C81.5079974,105.663006 80.1743457,103.329116 80.1743457,100.995225 C80.1743457,96.9942705 73.5060875,98.3279222 73.5060875,90.3260124 C73.5060875,83.8244606 65.8375906,82.1573961 59.3360389,82.8242219 C57.6689744,82.9909284 56.5020292,81.8239832 56.5020292,80.1569186 L56.5020292,55.8177763 C56.5020292,53.8172988 58.5025066,52.4836472 60.1695712,53.4838859 L74.5063263,60.6522634 C74.6730327,60.6522634 74.8397392,60.8189699 74.8397392,60.8189699 L75.3398585,61.1523828 C81.3412909,64.6532184 80.1743457,67.4872281 77.6737489,71.8215959 C74.8397392,76.6560831 73.672794,71.8215959 69.6718391,70.4879443 C65.6708842,69.1542926 61.6699293,71.8215959 63.0035809,74.4888992 C64.3372325,77.1562024 68.3381875,74.4888992 71.0054907,77.1562024 C73.672794,79.8235057 73.672794,83.8244606 81.6747038,81.1571574 C89.6766136,78.4898541 91.0102653,79.8235057 93.6775686,82.490809 C96.3448718,85.1581123 97.6785235,90.4927188 93.6775686,94.4936737 C91.3436782,96.8275641 90.3434395,101.828758 89.3432007,105.162887 C89.1764943,105.829713 88.6763749,106.496538 88.0095491,106.829951 L86.1757781,107.496777 Z" id="icon-map"></path>
            </g>
        </g>
    </g>
</svg>