<?xml version="1.0" encoding="UTF-8"?>
<svg width="80px" height="80px" viewBox="0 0 80 80" version="1.1" xmlns="http://www.w3.org/2000/svg" xmlns:xlink="http://www.w3.org/1999/xlink">
    <!-- Generator: Sketch 48.1 (47250) - http://www.bohemiancoding.com/sketch -->
    <title>icon-news-updates</title>
    <desc>Created with Sketch.</desc>
    <defs>
        <linearGradient x1="100%" y1="0%" x2="-34.1911765%" y2="134.855143%" id="linearGradient-1">
            <stop stop-color="#78C1FF" offset="0%"></stop>
            <stop stop-color="#7A4FF6" offset="100%"></stop>
        </linearGradient>
    </defs>
    <g id="Community-LP---Non-Authenticated" stroke="none" stroke-width="1" fill="none" fill-rule="evenodd" transform="translate(-127.000000, -666.000000)">
        <g id="Featured-Cards" transform="translate(78.000000, 342.000000)" fill="url(#linearGradient-1)" fill-rule="nonzero">
            <g id="News-&amp;-Updates-Feature-Card" transform="translate(0.000000, 282.000000)">
                <path d="M83.4555494,114.343211 L81.2916743,112.678692 C78.9613473,111.014173 78.9613473,107.685134 78.9613473,106.020615 L78.9613473,101.193509 C78.9613473,99.8618934 77.7961838,98.6967299 76.4645684,98.6967299 L66.4774526,98.6967299 C65.1458372,98.6967299 63.9806737,99.8618934 63.9806737,101.193509 L63.9806737,114.010307 C63.9806737,118.504509 66.6439045,122 70.8052028,122 L78.9613473,122 C83.7884533,122 84.1213571,118.670961 84.1213571,118.670961 C84.1213571,118.670961 84.9536168,115.674827 83.4555494,114.343211 Z M120.57433,68.7353826 L120.57433,45.9314682 C120.57433,41.9366219 115.580772,40.7714584 112.917541,43.4346893 L98.1033192,57.4166514 C95.7729922,59.4140745 92.7768575,60.2463342 89.7807227,60.2463342 L64.4800294,60.2463342 C55.8245291,60.4127861 49,67.9031229 49,76.5586232 L49,76.8915271 C49,85.5470274 55.8245291,92.0386527 64.4800294,92.0386527 L89.7807227,92.0386527 C92.9433094,92.0386527 95.9394441,93.3702681 98.2697711,95.3676913 L112.917541,109.682557 C115.580772,112.345788 120.57433,111.347077 120.57433,107.35223 L120.57433,84.7147678 C125.567888,84.7147678 128.564022,81.2192773 128.564022,76.7250752 C128.564022,72.2308731 125.567888,68.7353826 120.57433,68.7353826 Z" id="icon-news-updates"></path>
            </g>
        </g>
    </g>
</svg>