<?xml version="1.0" encoding="UTF-8"?>
<svg width="77px" height="80px" viewBox="0 0 77 80" version="1.1" xmlns="http://www.w3.org/2000/svg" xmlns:xlink="http://www.w3.org/1999/xlink">
    <!-- Generator: Sketch 48.1 (47250) - http://www.bohemiancoding.com/sketch -->
    <title>Shape</title>
    <desc>Created with Sketch.</desc>
    <defs>
        <linearGradient x1="100%" y1="0%" x2="-34.1911765%" y2="134.855143%" id="linearGradient-1">
            <stop stop-color="#78C1FF" offset="0%"></stop>
            <stop stop-color="#7A4FF6" offset="100%"></stop>
        </linearGradient>
    </defs>
    <g id="Knowledge-Base-Landing-Page" stroke="none" stroke-width="1" fill="none" fill-rule="evenodd" transform="translate(-704.000000, -668.000000)">
        <g id="Featured-Cards" transform="translate(77.000000, 341.000000)" fill="url(#linearGradient-1)" fill-rule="nonzero">
            <g id="Developer-Docs-Feature-Card" transform="translate(578.000000, 282.000000)">
                <path d="M116.221298,45 L67.3693844,45 C62.4442596,45.1331115 58.3178037,49.2595674 58.1846922,54.1846922 L55.1231281,54.1846922 C51.7953411,54.1846922 49,56.9800333 49,60.3078203 L49,60.4409318 C49,63.7687188 51.6622296,66.5640599 54.9900166,66.5640599 L58.1846922,66.5640599 L58.1846922,78.9434276 L55.1231281,78.9434276 C51.7953411,78.9434276 49,81.7387687 49,85.0665557 C49,88.3943428 51.7953411,91.1896839 55.1231281,91.1896839 L58.1846922,91.1896839 L58.1846922,103.569052 L55.1231281,103.569052 C51.7953411,103.569052 49,106.231281 49,109.69218 C49,113.019967 51.6622296,115.815308 54.9900166,115.815308 L58.1846922,115.815308 C58.1846922,121.938436 62.4442596,125 67.3693844,125 L116.221298,125 C121.279534,124.866889 125.272879,120.873544 125.40599,115.815308 L125.40599,54.1846922 C125.272879,49.1264559 121.279534,45.1331115 116.221298,45 Z M111.828619,105.033278 L71.2296173,105.033278 L71.2296173,65.0998336 L111.828619,65.0998336 L111.828619,105.033278 Z M78.2845258,79.0765391 L104.77371,79.0765391 C105.306156,79.0765391 105.838602,78.6772047 105.838602,78.1447587 L105.838602,72.0216306 C105.838602,71.4891847 105.439268,70.9567388 104.906822,70.9567388 L78.2845258,70.9567388 C77.7520799,70.9567388 77.2196339,71.3560732 77.2196339,71.8885191 L77.2196339,78.0116473 C77.2196339,78.5440932 77.6189684,79.0765391 78.1514143,79.0765391 L78.2845258,79.0765391 Z M78.2845258,99.0432612 L84.4076539,99.0432612 C84.9400998,99.0432612 85.4725458,98.6439268 85.4725458,98.1114809 L85.4725458,85.9983361 C85.4725458,85.4658902 85.0732113,84.9334443 84.5407654,84.9334443 L78.2845258,84.9334443 C77.7520799,84.9334443 77.2196339,85.3327787 77.2196339,85.8652246 L77.2196339,97.9783694 C77.2196339,98.5108153 77.6189684,99.0432612 78.1514143,99.0432612 L78.2845258,99.0432612 Z M104.640599,85.0665557 L92.3943428,85.0665557 C91.8618968,85.0665557 91.3294509,85.4658902 91.3294509,85.9983361 L91.3294509,98.1114809 C91.3294509,98.6439268 91.7287854,99.1763727 92.2612313,99.1763727 L104.640599,99.1763727 C105.173045,99.1763727 105.705491,98.7770383 105.705491,98.2445923 L105.705491,86.1314476 C105.705491,85.5990017 105.306156,85.0665557 104.77371,85.0665557 L104.640599,85.0665557 Z" id="Shape"></path>
            </g>
        </g>
    </g>
</svg>