<?xml version="1.0" encoding="UTF-8"?>
<svg width="56px" height="80px" viewBox="0 0 56 80" version="1.1" xmlns="http://www.w3.org/2000/svg" xmlns:xlink="http://www.w3.org/1999/xlink">
    <!-- Generator: Sketch 48.1 (47250) - http://www.bohemiancoding.com/sketch -->
    <title>icon-ideas</title>
    <desc>Created with Sketch.</desc>
    <defs>
        <linearGradient x1="100%" y1="0%" x2="-34.1911765%" y2="134.855143%" id="linearGradient-1">
            <stop stop-color="#78C1FF" offset="0%"></stop>
            <stop stop-color="#7A4FF6" offset="100%"></stop>
        </linearGradient>
    </defs>
    <g id="Community-LP---Non-Authenticated" stroke="none" stroke-width="1" fill="none" fill-rule="evenodd" transform="translate(-717.000000, -666.000000)">
        <g id="Featured-Cards" transform="translate(78.000000, 342.000000)" fill="url(#linearGradient-1)" fill-rule="nonzero">
            <g id="Ideas-Feature-Card" transform="translate(578.000000, 282.000000)">
                <path d="M85.7083771,42.1550842 C72.75171,43.4555736 62.4788504,53.6570938 61.0881033,66.6043839 C60.3697383,75.5141669 64.0772906,84.207738 71.0046025,89.8568647 C73.0659649,91.4529999 74.2667708,93.917812 74.2531108,96.5248555 C74.2525345,98.3686774 74.9964887,100.134616 76.3162631,101.422201 C77.6360375,102.709786 79.4198043,103.409916 81.2630499,103.36382 L96.6507211,103.36382 C98.4645273,103.36382 100.204045,102.643289 101.4866,101.360734 C102.769154,100.078179 103.489686,98.3386618 103.489686,96.5248555 C103.476026,93.917812 104.676832,91.4529999 106.738194,89.8568647 C113.043727,84.7566747 116.742883,77.107573 116.825668,68.9980216 C116.996642,53.0974281 102.634815,40.4453429 85.7083771,42.1550842 Z M100.925074,111.399604 L76.9886968,111.399604 C75.5422011,111.396777 74.3435142,112.520545 74.2531108,113.964216 C74.2531108,118.402257 77.8508538,122 82.2888947,122 L95.6248763,122 C97.7560987,122 99.8000318,121.153375 101.307034,119.646373 C102.814035,118.139372 103.66066,116.095439 103.66066,113.964216 C103.570257,112.520545 102.37157,111.396777 100.925074,111.399604 Z" id="icon-ideas"></path>
            </g>
        </g>
    </g>
</svg>