<?xml version="1.0" encoding="UTF-8"?>
<svg width="74px" height="80px" viewBox="0 0 74 80" version="1.1" xmlns="http://www.w3.org/2000/svg" xmlns:xlink="http://www.w3.org/1999/xlink">
    <!-- Generator: Sketch 48.1 (47250) - http://www.bohemiancoding.com/sketch -->
    <title>Shape</title>
    <desc>Created with Sketch.</desc>
    <defs>
        <linearGradient x1="100%" y1="0%" x2="-34.1911765%" y2="134.855143%" id="linearGradient-1">
            <stop stop-color="#78C1FF" offset="0%"></stop>
            <stop stop-color="#7A4FF6" offset="100%"></stop>
        </linearGradient>
    </defs>
    <g id="Community-LP---Non-Authenticated" stroke="none" stroke-width="1" fill="none" fill-rule="evenodd" transform="translate(-129.000000, -862.000000)">
        <g id="Featured-Cards" transform="translate(78.000000, 342.000000)" fill="url(#linearGradient-1)" fill-rule="nonzero">
            <g id="Events-Feature-Card" transform="translate(0.000000, 478.000000)">
                <path d="M121.833333,72 L53.5,72 C52.1666667,72 51,73.1666667 51,74.5 L51,115.333333 C51,119 54,122 57.6666667,122 L117.666667,122 C121.333333,122 124.333333,119 124.333333,115.333333 L124.333333,74.5 C124.333333,73.1666667 123.166667,72 121.833333,72 Z M76,108.666667 C76,109.666667 75.3333333,110.333333 74.3333333,110.333333 L67.6666667,110.333333 C66.6666667,110.333333 66,109.666667 66,108.666667 L66,102 C66,101 66.6666667,100.333333 67.6666667,100.333333 L74.3333333,100.333333 C75.3333333,100.333333 76,101 76,102 L76,108.666667 Z M76,92 C76,93 75.3333333,93.6666667 74.3333333,93.6666667 L67.6666667,93.6666667 C66.6666667,93.6666667 66,93 66,92 L66,85.3333333 C66,84.3333333 66.6666667,83.6666667 67.6666667,83.6666667 L74.3333333,83.6666667 C75.3333333,83.6666667 76,84.3333333 76,85.3333333 L76,92 Z M92.6666667,108.666667 C92.6666667,109.666667 92,110.333333 91,110.333333 L84.3333333,110.333333 C83.3333333,110.333333 82.6666667,109.666667 82.6666667,108.666667 L82.6666667,102 C82.6666667,101 83.3333333,100.333333 84.3333333,100.333333 L91,100.333333 C92,100.333333 92.6666667,101 92.6666667,102 L92.6666667,108.666667 Z M92.6666667,92 C92.6666667,93 92,93.6666667 91,93.6666667 L84.3333333,93.6666667 C83.3333333,93.6666667 82.6666667,93 82.6666667,92 L82.6666667,85.3333333 C82.6666667,84.3333333 83.3333333,83.6666667 84.3333333,83.6666667 L91,83.6666667 C92,83.6666667 92.6666667,84.3333333 92.6666667,85.3333333 L92.6666667,92 Z M109.333333,108.666667 C109.333333,109.666667 108.666667,110.333333 107.666667,110.333333 L101,110.333333 C100,110.333333 99.3333333,109.666667 99.3333333,108.666667 L99.3333333,102 C99.3333333,101 100,100.333333 101,100.333333 L107.666667,100.333333 C108.666667,100.333333 109.333333,101 109.333333,102 L109.333333,108.666667 Z M109.333333,92 C109.333333,93 108.666667,93.6666667 107.666667,93.6666667 L101,93.6666667 C100,93.6666667 99.3333333,93 99.3333333,92 L99.3333333,85.3333333 C99.3333333,84.3333333 100,83.6666667 101,83.6666667 L107.666667,83.6666667 C108.666667,83.6666667 109.333333,84.3333333 109.333333,85.3333333 L109.333333,92 Z M117.666667,50.3333333 L109.333333,50.3333333 L109.333333,47 C109.333333,44.3333333 107.166667,42 104.333333,42 C101.666667,42 99.3333333,44.1666667 99.3333333,47 L99.3333333,50.3333333 L76,50.3333333 L76,47 C76,44.3333333 73.8333333,42 71,42 C68.3333333,42 66,44.1666667 66,47 L66,50.3333333 L57.6666667,50.3333333 C54,50.3333333 51,53.3333333 51,57 L51,61.1666667 C51,62.5 52.1666667,63.6666667 53.5,63.6666667 L121.833333,63.6666667 C123.166667,63.6666667 124.333333,62.5 124.333333,61.1666667 L124.333333,57 C124.333333,53.3333333 121.333333,50.3333333 117.666667,50.3333333 Z" id="Shape"></path>
            </g>
        </g>
    </g>
</svg>