<?xml version="1.0" encoding="UTF-8"?>
<svg width="80px" height="80px" viewBox="0 0 80 80" version="1.1" xmlns="http://www.w3.org/2000/svg" xmlns:xlink="http://www.w3.org/1999/xlink">
    <!-- Generator: Sketch 48.1 (47250) - http://www.bohemiancoding.com/sketch -->
    <title>icon-user-docs</title>
    <desc>Created with Sketch.</desc>
    <defs>
        <linearGradient x1="100%" y1="0%" x2="-34.1911765%" y2="134.855143%" id="linearGradient-1">
            <stop stop-color="#78C1FF" offset="0%"></stop>
            <stop stop-color="#7A4FF6" offset="100%"></stop>
        </linearGradient>
    </defs>
    <g id="Knowledge-Base-Landing-Page" stroke="none" stroke-width="1" fill="none" fill-rule="evenodd" transform="translate(-124.000000, -468.000000)">
        <g id="Featured-Cards" transform="translate(77.000000, 341.000000)" fill="url(#linearGradient-1)" fill-rule="nonzero">
            <g id="User-Docs-Feature-Card" transform="translate(0.000000, 86.000000)">
                <path d="M119.727273,41 L54.2727273,41 C50.2727273,41 47,44.2727273 47,48.2727273 L47,113.727273 C47,117.727273 50.2727273,121 54.2727273,121 L119.727273,121 C123.727273,121 127,117.727273 127,113.727273 L127,48.2727273 C127,44.2727273 123.727273,41 119.727273,41 Z M61.5454545,59.1818182 C61.5454545,58.0909091 62.2727273,57.3636364 63.3636364,57.3636364 L81.5454545,57.3636364 C82.6363636,57.3636364 83.3636364,58.0909091 83.3636364,59.1818182 L83.3636364,77.3636364 C83.3636364,78.4545455 82.6363636,79.1818182 81.5454545,79.1818182 L63.3636364,79.1818182 C62.2727273,79.1818182 61.5454545,78.4545455 61.5454545,77.3636364 L61.5454545,59.1818182 Z M105.181818,106.454545 C105.181818,107.545455 104.454545,108.272727 103.363636,108.272727 L63.3636364,108.272727 C62.2727273,108.272727 61.5454545,107.545455 61.5454545,106.454545 L61.5454545,102.818182 C61.5454545,101.727273 62.2727273,101 63.3636364,101 L103.363636,101 C104.454545,101 105.181818,101.727273 105.181818,102.818182 L105.181818,106.454545 Z M112.454545,91.9090909 C112.454545,93 111.727273,93.7272727 110.636364,93.7272727 L63.3636364,93.7272727 C62.2727273,93.7272727 61.5454545,93 61.5454545,91.9090909 L61.5454545,88.2727273 C61.5454545,87.1818182 62.2727273,86.4545455 63.3636364,86.4545455 L110.636364,86.4545455 C111.727273,86.4545455 112.454545,87.1818182 112.454545,88.2727273 L112.454545,91.9090909 Z M112.454545,77.3636364 C112.454545,78.4545455 111.727273,79.1818182 110.636364,79.1818182 L92.4545455,79.1818182 C91.3636364,79.1818182 90.6363636,78.4545455 90.6363636,77.3636364 L90.6363636,73.7272727 C90.6363636,72.6363636 91.3636364,71.9090909 92.4545455,71.9090909 L110.636364,71.9090909 C111.727273,71.9090909 112.454545,72.6363636 112.454545,73.7272727 L112.454545,77.3636364 Z M112.454545,62.8181818 C112.454545,63.9090909 111.727273,64.6363636 110.636364,64.6363636 L92.4545455,64.6363636 C91.3636364,64.6363636 90.6363636,63.9090909 90.6363636,62.8181818 L90.6363636,59.1818182 C90.6363636,58.0909091 91.3636364,57.3636364 92.4545455,57.3636364 L110.636364,57.3636364 C111.727273,57.3636364 112.454545,58.0909091 112.454545,59.1818182 L112.454545,62.8181818 Z" id="icon-user-docs"></path>
            </g>
        </g>
    </g>
</svg>