<?xml version="1.0" encoding="UTF-8"?>
<svg width="97px" height="80px" viewBox="0 0 97 80" version="1.1" xmlns="http://www.w3.org/2000/svg" xmlns:xlink="http://www.w3.org/1999/xlink">
    <!-- Generator: Sketch 48.1 (47250) - http://www.bohemiancoding.com/sketch -->
    <title>icon-community-q-a</title>
    <desc>Created with Sketch.</desc>
    <defs>
        <linearGradient x1="100%" y1="0%" x2="-34.1911765%" y2="134.855143%" id="linearGradient-1">
            <stop stop-color="#78C1FF" offset="0%"></stop>
            <stop stop-color="#7A4FF6" offset="100%"></stop>
        </linearGradient>
    </defs>
    <g id="Community-LP---Non-Authenticated" stroke="none" stroke-width="1" fill="none" fill-rule="evenodd" transform="translate(-119.000000, -468.000000)">
        <g id="Featured-Cards" transform="translate(78.000000, 342.000000)" fill="url(#linearGradient-1)" fill-rule="nonzero">
            <g id="Q&amp;A-Feature-Card" transform="translate(0.000000, 86.000000)">
                <path d="M132.816309,89.8688314 C132.616033,89.0677256 132.616033,88.2666199 133.016586,87.4655142 C135.620179,82.8591563 137.222391,77.6519691 137.222391,72.044229 C137.222391,54.419903 122.001382,40 103.175398,40 C94.3632347,40 86.3521774,43.2044229 80.3438845,48.4116101 C100.972357,50.8149273 117.194748,67.6381475 117.194748,88.0663435 C117.194748,93.0732543 116.193366,97.8798886 114.390878,102.28597 C116.593919,101.484864 118.796959,100.483482 120.799724,99.4821001 C121.600829,99.0815472 122.401935,98.8812708 123.203041,99.2818236 L135.419903,104.088458 C136.621562,104.489011 137.622944,103.487629 137.222391,102.28597 L132.816309,89.8688314 Z M75.1366973,56.0221145 C56.3107127,56.0221145 41.089704,70.4420175 41.089704,88.0663435 C41.089704,93.6740836 42.6919154,98.8812708 45.295509,103.487629 C45.6960619,104.288734 45.8963383,105.08984 45.4957855,105.890946 L41.089704,118.107808 C40.6891511,119.309467 41.6905333,120.310849 42.8921918,119.910296 L55.1090541,115.103662 C55.9101599,114.903385 56.7112656,114.903385 57.5123713,115.303938 C62.7195585,118.308085 68.7278515,119.910296 75.1366973,119.910296 C93.9626818,119.910296 109.183691,105.490393 109.183691,87.866067 C109.183691,70.4420175 93.9626818,56.0221145 75.1366973,56.0221145 Z" id="icon-community-q-a"></path>
            </g>
        </g>
    </g>
</svg>