<?xml version="1.0" encoding="UTF-8"?>
<svg width="112px" height="82px" viewBox="0 0 112 82" version="1.1" xmlns="http://www.w3.org/2000/svg" xmlns:xlink="http://www.w3.org/1999/xlink">
    <!-- Generator: Sketch 48.1 (47250) - http://www.bohemiancoding.com/sketch -->
    <title>icon-groups</title>
    <desc>Created with Sketch.</desc>
    <defs>
        <linearGradient x1="100%" y1="0%" x2="-34.1911765%" y2="134.855143%" id="linearGradient-1">
            <stop stop-color="#78C1FF" offset="0%"></stop>
            <stop stop-color="#7A4FF6" offset="100%"></stop>
        </linearGradient>
    </defs>
    <g id="Community-LP---Non-Authenticated" stroke="none" stroke-width="1" fill="none" fill-rule="evenodd" transform="translate(-689.000000, -468.000000)">
        <g id="Featured-Cards" transform="translate(78.000000, 342.000000)" fill="url(#linearGradient-1)" fill-rule="nonzero">
            <g id="Groups-Feature-Card" transform="translate(578.000000, 86.000000)">
                <path d="M67.3106739,85.3159843 C64.2896082,80.7843859 62.7790754,75.6054163 62.7790754,69.7790754 C62.7790754,59.8527169 66.879093,51.6526817 73.3528051,46.6895024 C71.1949011,42.8052752 66.879093,40 61.2685426,40 C51.7737649,40 46.3790049,47.7684545 46.3790049,56.6158609 C46.3790049,61.3632498 47.8895377,65.4632674 51.1263937,68.2685426 C52.8527169,69.9948658 54.3632498,72.1527698 54.3632498,74.3106739 C54.3632498,76.4685779 53.5000882,78.6264819 48.1053281,81.0001763 C40.3368737,84.4528227 33.2157904,89.2002116 33,96.3212948 C33.2157904,101.068684 36.236856,104.73712 40.7684545,104.73712 L47.8895377,104.73712 C48.9684897,104.73712 50.0474417,104.089749 50.6948129,103.010797 C54.1474594,96.7528756 60.6211714,92.8686484 66.0159314,90.0633732 C67.9580451,89.2002116 68.3896259,86.8265171 67.3106739,85.3159843 Z M130.321471,81.0001763 C124.926711,78.6264819 124.063549,76.6843683 124.063549,74.3106739 C124.063549,71.9369794 125.574082,69.7790754 127.300405,68.2685426 C130.537262,65.247477 132.047794,61.3632498 132.047794,56.6158609 C132.047794,47.7684545 126.868825,40 117.158257,40 C111.547706,40 107.231898,42.8052752 104.858204,46.6895024 C111.331916,51.6526817 115.431933,59.8527169 115.431933,69.7790754 C115.431933,75.6054163 113.921401,80.7843859 110.900335,85.3159843 C109.821383,87.0423075 110.468754,89.2002116 112.195077,90.0633732 C117.589837,92.652858 124.063549,96.7528756 127.516196,103.010797 C128.163567,104.089749 129.242519,104.73712 130.321471,104.73712 L137.442554,104.73712 C141.974153,104.73712 144.995218,101.068684 144.995218,96.3212948 C145.211009,89.2002116 138.089926,84.4528227 130.321471,81.0001763 Z M103.563461,96.7528756 C97.7371205,94.1633908 96.6581685,91.7896964 96.6581685,89.416002 C96.6581685,86.8265171 98.3844917,84.4528227 100.326605,82.7264995 C103.779252,79.4896435 105.721365,74.9580451 105.721365,69.7790754 C105.721365,60.0685073 99.8950245,51.6526817 89.3212948,51.6526817 C78.7475651,51.6526817 72.9212243,60.0685073 72.9212243,69.7790754 C72.9212243,74.9580451 74.8633379,79.4896435 78.3159843,82.7264995 C80.2580979,84.6686131 81.9844212,87.0423075 81.9844212,89.416002 C81.9844212,92.0054868 81.1212596,94.1633908 75.0791283,96.7528756 C66.4475122,100.421312 58.247477,104.52133 58.0316866,112.289785 C58.0316866,117.468754 61.9159138,121.784562 66.879093,121.784562 L111.763497,121.784562 C116.726676,121.784562 120.610903,117.468754 120.610903,112.289785 C120.395113,104.73712 112.195077,100.637103 103.563461,96.7528756 Z" id="icon-groups"></path>
            </g>
        </g>
    </g>
</svg>