<?xml version="1.0" encoding="UTF-8"?>
<svg width="84px" height="80px" viewBox="0 0 84 80" version="1.1" xmlns="http://www.w3.org/2000/svg" xmlns:xlink="http://www.w3.org/1999/xlink">
    <!-- Generator: Sketch 48.1 (47250) - http://www.bohemiancoding.com/sketch -->
    <title>Shape</title>
    <desc>Created with Sketch.</desc>
    <defs>
        <linearGradient x1="100%" y1="0%" x2="-34.1911765%" y2="134.855143%" id="linearGradient-1">
            <stop stop-color="#78C1FF" offset="0%"></stop>
            <stop stop-color="#7A4FF6" offset="100%"></stop>
        </linearGradient>
    </defs>
    <g id="Community-LP---Non-Authenticated" stroke="none" stroke-width="1" fill="none" fill-rule="evenodd" transform="translate(-702.000000, -862.000000)">
        <g id="Featured-Cards" transform="translate(78.000000, 342.000000)" fill="url(#linearGradient-1)" fill-rule="nonzero">
            <g id="AMA-Feature-Card" transform="translate(578.000000, 478.000000)">
                <path d="M102.786885,42 C88.2295082,42 76.295082,53.2786885 76.295082,67.1803279 C76.3042806,71.5625633 77.4812871,75.863164 79.704918,79.6393443 C79.962982,80.0730317 80.056103,80.5851972 79.9672131,81.0819672 L77.3442623,89.2131148 C77.1620897,89.8690265 77.357769,90.5718952 77.852676,91.0393074 C78.347583,91.5067196 79.0604777,91.6619485 79.704918,91.442623 L87.442623,88.6885246 C87.9226741,88.5471567 88.438557,88.5940552 88.8852459,88.8196721 C93.0943672,91.3107825 97.8958392,92.6243928 102.786885,92.6229508 C117.47541,92.6229508 129.409836,81.2131148 129.409836,67.3114754 C129.409836,53.4098361 117.47541,42 102.918033,42 L102.786885,42 Z M82.1967213,115.967213 L82.1967213,117.672131 C82.1967213,119.700193 80.5526522,121.344262 78.5245902,121.344262 L49.6721311,121.344262 C47.6440691,121.344262 46,119.700193 46,117.672131 L46,115.967213 C46,111.639344 51.2459016,108.885246 55.9672131,106.786885 C56.1550016,106.728128 56.3321243,106.639566 56.4918033,106.52459 C56.8479427,106.282296 57.3159917,106.282296 57.6721311,106.52459 C59.6155782,107.813747 61.8973699,108.498284 64.2295082,108.491803 C66.5443328,108.507579 68.8168297,107.87128 70.7868852,106.655738 C71.1115028,106.46832 71.5114481,106.46832 71.8360656,106.655738 C72.023854,106.714495 72.2009767,106.803056 72.3606557,106.918033 C77.0819672,108.885246 82.1967213,111.508197 82.1967213,115.967213 Z M64.1114754,105.003279 C59.1499665,105.003279 55.1278689,100.552549 55.1278689,95.0622951 C55.1278689,89.5720414 59.1499665,85.1213115 64.1114754,85.1213115 C69.0729843,85.1213115 73.095082,89.5720414 73.095082,95.0622951 C73.095082,100.552549 69.0729843,105.003279 64.1114754,105.003279 Z" id="Shape"></path>
            </g>
        </g>
    </g>
</svg>