<?xml version="1.0" encoding="UTF-8" standalone="no"?>
<svg width="25px" height="18px" viewBox="0 0 25 18" version="1.1" xmlns="http://www.w3.org/2000/svg" xmlns:xlink="http://www.w3.org/1999/xlink">
    <!-- Generator: Sketch 47.1 (45422) - http://www.bohemiancoding.com/sketch -->
    <title>Group 7</title>
    <desc>Created with Sketch.</desc>
    <defs></defs>
    <g id="Page-1" stroke="none" stroke-width="1" fill="none" fill-rule="evenodd">
        <g id="08-Contact-menu" transform="translate(-898.000000, -306.000000)" fill="#78B3FD">
            <g id="Group-16" transform="translate(847.000000, 0.000000)">
                <g id="Group-14" transform="translate(40.000000, 247.000000)">
                    <g id="Group-7" transform="translate(11.000000, 59.000000)">
                        <g id="Group-2" transform="translate(12.624903, 2.500502)">
                            <path d="M6.90985868,6.83203673 L6.90985868,6.83203673 C6.90985868,6.7176999 6.98061673,6.61782465 7.08606906,6.57127646 C8.25175095,6.05382322 9.05999054,4.8885366 9.03579585,3.53637932 C9.00543836,1.83872596 7.61355895,0.416294458 5.90030101,0.336077908 C4.00695242,0.247274798 2.44388417,1.7406584 2.44388417,3.59558139 C2.44388417,4.92243092 3.2452762,6.06150593 4.39406746,6.57127646 C4.49951978,6.61782465 4.57027784,6.7176999 4.57027784,6.83203673 L4.57027784,6.83203673 C4.57027784,6.96490246 4.4762381,7.07697966 4.34567808,7.10793647 C2.28616218,7.59330309 0.637271251,9.12645603 0.0111765922,11.1094995 C-0.0367562836,11.2613461 0.0753153451,11.416582 0.236004605,11.416582 L11.2441319,11.416582 C11.4048212,11.416582 11.5168928,11.2613461 11.4689599,11.1094995 C10.8428653,9.12645603 9.19397434,7.59330309 7.13445844,7.10793647 C7.00389842,7.07697966 6.90985868,6.96490246 6.90985868,6.83203673" id="Mask"></path>
                        </g>
                        <g id="Group-2">
                            <path d="M10.3962718,10.2791843 L10.3962718,10.2791843 C10.3962718,10.107158 10.5027312,9.9568901 10.6613902,9.88685572 C12.4152243,9.10831816 13.6312663,7.35507878 13.594864,5.32068195 C13.5491895,2.76646682 11.4550285,0.626338471 8.87733536,0.505648151 C6.02868571,0.372038867 3.67696144,2.61891865 3.67696144,5.40975481 C3.67696144,7.40607469 4.88270091,9.11987724 6.61112209,9.88685572 C6.76978106,9.9568901 6.87624054,10.107158 6.87624054,10.2791843 L6.87624054,10.2791843 C6.87624054,10.4790882 6.73475246,10.6477147 6.53831754,10.694291 C3.43965982,11.4245524 0.958810507,13.7312674 0.0168158128,16.7148681 C-0.0553018998,16.9433297 0.113316181,17.176891 0.355082227,17.176891 L16.9174301,17.176891 C17.1591961,17.176891 17.3278142,16.9433297 17.2556965,16.7148681 C16.3137018,13.7312674 13.8328525,11.4245524 10.7341948,10.694291 C10.5377598,10.6477147 10.3962718,10.4790882 10.3962718,10.2791843" id="Mask"></path>
                        </g>
                    </g>
                </g>
            </g>
        </g>
    </g>
</svg>