<?xml version="1.0" encoding="UTF-8" standalone="no"?>
<svg width="24px" height="16px" viewBox="0 0 24 16" version="1.1" xmlns="http://www.w3.org/2000/svg" xmlns:xlink="http://www.w3.org/1999/xlink">
    <!-- Generator: Sketch 47.1 (45422) - http://www.bohemiancoding.com/sketch -->
    <title>Fill 1</title>
    <desc>Created with Sketch.</desc>
    <defs></defs>
    <g id="Page-1" stroke="none" stroke-width="1" fill="none" fill-rule="evenodd">
        <g id="08-Contact-menu" transform="translate(-898.000000, -535.000000)" fill="#78B3FD">
            <g id="Group-16" transform="translate(847.000000, 0.000000)">
                <g id="Group-14" transform="translate(40.000000, 247.000000)">
                    <path d="M23.9769588,297.746522 C23.6753197,297.98183 23.3136434,298.099968 22.9514828,298.099968 C22.5898064,298.099968 22.2281301,297.98183 21.9260068,297.746522 L11.6949713,289.762044 C11.5744125,289.982342 11.49985,290.231691 11.49985,290.500406 L11.49985,302.028054 C11.49985,302.882617 12.1922158,303.574983 13.0467791,303.574983 L32.9530209,303.574983 C33.8071001,303.574983 34.49995,302.882617 34.49995,302.028054 L34.49995,290.500406 C34.49995,290.209903 34.4147358,289.941672 34.2757784,289.709269 L23.9769588,297.746522 Z M12.4115456,289.092918 C12.6056985,289.004799 12.8197025,288.953477 13.0467791,288.953477 L32.9530209,288.953477 C33.1558889,288.953477 33.3485893,288.995116 33.5257962,289.065805 L23.3814274,296.982983 C23.1277214,297.180041 22.7752443,297.180525 22.5215382,296.982983 L12.4115456,289.092918 Z" id="Fill-1"></path>
                </g>
            </g>
        </g>
    </g>
</svg>