<?xml version="1.0" encoding="UTF-8" standalone="no"?>
<svg width="22px" height="26px" viewBox="0 0 22 26" version="1.1" xmlns="http://www.w3.org/2000/svg" xmlns:xlink="http://www.w3.org/1999/xlink">
    <!-- Generator: Sketch 47.1 (45422) - http://www.bohemiancoding.com/sketch -->
    <title>Fill 1</title>
    <desc>Created with Sketch.</desc>
    <defs></defs>
    <g id="Page-1" stroke="none" stroke-width="1" fill="none" fill-rule="evenodd">
        <g id="08-Contact-menu" transform="translate(-899.000000, -454.000000)" fill="#78B3FD">
            <g id="Group-16" transform="translate(847.000000, 0.000000)">
                <g id="Group-14" transform="translate(40.000000, 247.000000)">
                    <path d="M31.9995575,217.070354 L31.9995575,216.000639 C31.9995575,211.03766 27.9618977,207 22.9989184,207 C18.035939,207 13.9982793,211.03766 13.9982793,216.000639 L13.9982793,217.070354 C12.8723206,217.218535 12,218.171436 12,219.337955 L12,223.357227 C12,224.6265 13.0286136,225.655113 14.2978859,225.655113 C15.5666175,225.655113 16.5952311,224.6265 16.5952311,223.357227 L16.5952311,219.337955 C16.5952311,219.333628 16.5941495,219.329843 16.5941495,219.325516 L16.5941495,216.000639 C16.5941495,212.469174 19.4674533,209.59587 22.9989184,209.59587 C26.5303835,209.59587 29.4036873,212.469174 29.4036873,216.000639 L29.4036873,222.102016 L29.4042281,222.102016 L29.4042281,223.357227 C29.4042281,223.365339 29.4069322,223.37237 29.4069322,223.380482 L29.4069322,223.484857 C29.4069322,226.416568 27.5849558,228.925369 25.0161259,229.953982 C24.800885,229.825811 24.5526549,229.747394 24.2833333,229.747394 L21.7145034,229.747394 C20.9189774,229.747394 20.2743363,230.392576 20.2743363,231.187561 C20.2743363,231.983088 20.9189774,232.627729 21.7145034,232.627729 L24.2833333,232.627729 C25.0583088,232.627729 25.6851032,232.014995 25.7175516,231.248132 C28.1728122,230.205998 30.029941,228.032498 30.6426745,225.38471 C30.9612094,225.551819 31.3181416,225.655113 31.7021141,225.655113 C32.9713864,225.655113 34,224.6265 34,223.357227 L34,219.337955 C34,218.170895 33.1265978,217.217453 31.9995575,217.070354" id="Fill-1" transform="translate(23.000000, 219.813864) scale(-1, 1) translate(-23.000000, -219.813864) "></path>
                </g>
            </g>
        </g>
    </g>
</svg>