<?xml version="1.0" encoding="utf-8"?><svg width="630" height="549" viewBox="0 0 630 549" xmlns="http://www.w3.org/2000/svg" xmlns:xlink="http://www.w3.org/1999/xlink"><svg width="12" height="20" viewBox="0 0 12 20" id="arrow-angular-lg-left-white" xmlns="http://www.w3.org/2000/svg"><path fill="none" stroke="#FFF" stroke-width="2" d="M10.29 19.382L2 9.876 10.64 1"/></svg><svg width="11" height="21" viewBox="0 0 11 21" id="arrow-angular-lg-right-grey" x="12" y="20" xmlns="http://www.w3.org/2000/svg"><path fill="none" stroke="#AFB4BE" stroke-width="2" d="M1.35 1l8.29 9.506L1 19.382"/></svg><svg width="11" height="21" viewBox="0 0 11 21" id="arrow-angular-lg-right-lightgrey" x="23" y="41" xmlns="http://www.w3.org/2000/svg"><path fill="none" stroke="#D3D5D5" stroke-width="2" d="M1.35 1l8.29 9.506L1 19.382"/></svg><svg width="8" height="14" viewBox="0 0 8 14" id="arrow-angular-md-left-grey" x="34" y="62" xmlns="http://www.w3.org/2000/svg"><path fill="none" stroke="#4C4B58" stroke-linecap="round" stroke-width="2" d="M6.798 12.319L2 6.818 7 1.68"/></svg><svg width="6" height="10" viewBox="0 0 6 10" id="arrow-angular-sm-right-grey" x="42" y="76" xmlns="http://www.w3.org/2000/svg"><path fill="none" stroke="#4C4B58" stroke-linecap="round" stroke-linejoin="round" d="M1.12 9.66l4-4.594-4-4.595"/></svg><svg width="6" height="10" viewBox="0 0 6 10" id="arrow-md-right-grey" x="48" y="86" xmlns="http://www.w3.org/2000/svg"><path fill="#AFB4BE" fill-rule="evenodd" d="M0 0l6 5-6 5"/></svg><svg width="9" height="5" viewBox="0 0 9 5" id="arrow-sm-blue-down" x="54" y="96" xmlns="http://www.w3.org/2000/svg"><path fill="#D1D7E0" fill-rule="evenodd" d="M9 0L5 5 0 0"/></svg><svg width="10" height="9" viewBox="0 0 10 9" id="check-sm-white" x="63" y="101" xmlns="http://www.w3.org/2000/svg"><path fill="none" stroke="#FFF" stroke-width="2.5" d="M1 4.192L4.202 7 9 1"/></svg><svg width="14" height="14" viewBox="0 0 14 14" id="check-success" x="73" y="110" xmlns="http://www.w3.org/2000/svg"><defs><linearGradient id="aia" x1="15.267%" x2="85.84%" y1="13.281%" y2="84.717%"><stop offset="0%" stop-color="#17DE99"/><stop offset="100%" stop-color="#00C7CF"/></linearGradient></defs><g fill="none" fill-rule="evenodd"><circle cx="7" cy="7" r="7" fill="url(#aia)"/><path stroke="#FFF" stroke-linecap="round" stroke-linejoin="round" stroke-width="1.75" d="M3.5 7.16L6.302 9.5l4.198-5"/></g></svg><svg width="16" height="16" viewBox="0 0 16 16" id="close-lg-grey" x="87" y="124" xmlns="http://www.w3.org/2000/svg"><path d="M1.5 1.5l12.748 12.748M14.5 1.5L1.752 14.248" fill="none" fill-rule="evenodd" stroke="#8E919C" stroke-linecap="round" stroke-width="2"/></svg><svg width="15" height="15" viewBox="0 0 15 15" id="close-md-white" x="103" y="140" xmlns="http://www.w3.org/2000/svg"><path d="M1.464 1.464l11.837 11.837m.235-11.837L1.699 13.301" fill="none" fill-rule="evenodd" stroke="#FFF" stroke-linecap="round" stroke-width="2"/></svg><svg width="15" height="12" viewBox="0 0 15 12" id="comments-sm-grey" x="118" y="155" xmlns="http://www.w3.org/2000/svg"><g fill="#8E919C" fill-rule="evenodd"><path d="M9.269 7.366c0 2.839-3.31 4.965-6.29 3.64L.332 12l.993-1.986C.467 9.328 0 8.423 0 7.366c0-2.088 2.075-3.972 4.635-3.972 2.559 0 4.634 1.884 4.634 3.972"/><path d="M14.896 4.591c0-2.536-2.519-4.59-5.627-4.59-1.873 0-3.528.748-4.55 1.896 3.287.043 6.05 2.528 6.05 5.47 0 .607-.116 1.193-.319 1.746.272-.044.543-.095.805-.175l3.31 1.324-1.324-2.317c1.042-.834 1.655-2.069 1.655-3.354"/></g></svg><svg width="10" height="10" viewBox="0 0 10 10" id="docs-sm" x="133" y="167" xmlns="http://www.w3.org/2000/svg"><defs><path id="ama" d="M0 3h7v7H0z"/><path id="amb" d="M3 0h7v7H3z"/></defs><g fill="none" fill-rule="evenodd"><use fill="#FFF" xlink:href="#ama"/><path stroke="#8E919C" d="M.5 3.5h6v6h-6z"/><use fill="#FFF" xlink:href="#amb"/><path stroke="#8E919C" d="M3.5.5h6v6h-6z"/><path fill="#8E919C" d="M4 1h5v1H4z"/></g></svg><svg width="10" height="8" viewBox="0 0 10 8" id="flag-cloth-grey" x="143" y="177" xmlns="http://www.w3.org/2000/svg"><path fill="#D1D7E0" fill-rule="evenodd" d="M0 0h10L7.263 4 10 8H0z"/></svg><svg width="15" height="22" viewBox="0 0 15 22" id="flag-dark-grey" x="153" y="185" xmlns="http://www.w3.org/2000/svg"><g fill="#6D6E7A" fill-rule="evenodd"><rect width="2" height="22" rx="1"/><path d="M3 1h12l-3.284 5L15 11H3z"/></g></svg><svg width="15" height="22" viewBox="0 0 15 22" id="flag-white" x="168" y="207" xmlns="http://www.w3.org/2000/svg"><g fill="#F6F7F9" fill-rule="evenodd"><rect width="2" height="22" rx="1"/><path d="M3 1h12l-3.284 5L15 11H3z"/></g></svg><svg width="27" height="19" viewBox="0 0 27 19" id="hamburger-black" x="183" y="229" xmlns="http://www.w3.org/2000/svg"><path d="M14.542 0H27v3H14.542zM6.797 8H27v3H6.797zM0 16h27v3H0z" fill="#6D6E7A" fill-rule="evenodd"/></svg><svg width="27" height="19" viewBox="0 0 27 19" id="hamburger-grey" x="210" y="248" xmlns="http://www.w3.org/2000/svg"><path d="M14.542 0H27v3H14.542zM6.797 8H27v3H6.797zM0 16h27v3H0z" fill="#AFB4BE" fill-rule="evenodd"/></svg><svg width="27" height="19" viewBox="0 0 27 19" id="hamburger-white" x="237" y="267" xmlns="http://www.w3.org/2000/svg"><path d="M14.542 0H27v3H14.542zM6.797 8H27v3H6.797zM0 16h27v3H0z" fill="#FFF" fill-rule="evenodd"/></svg><svg width="12" height="11" viewBox="0 0 12 11" id="like-sm-grey" x="264" y="286" xmlns="http://www.w3.org/2000/svg"><path fill="#8E919C" fill-rule="evenodd" d="M2.128 4.369H.331a.331.331 0 0 0-.33.332v5.32a.33.33 0 0 0 .33.332h1.797a.332.332 0 0 0 .332-.332V4.7a.332.332 0 0 0-.332-.332m9.78.403c.074-.845-.714-1.092-1.026-1.092l-3.089-.001c.174-.38.387-1.386.12-2.773C7.805.358 7.482-.007 7.07 0c-.332.006-.649.262-.682.58-.036.352-.123.852-.204 1.194-.26 1.093-1.657 2.536-2.54 3.039v5.339c.6.338 1.248.457 1.942.443 1.096-.021 3.68-.002 4.246-.006.402-.003.802-.194.995-.68.263-.66-.415-.991-.415-.991s.742.036.911-.63c.175-.683-.508-.953-.508-.953.461-.051.757-.171.87-.587.13-.491-.185-.86-.684-1.072.075-.007.838-.131.907-.904"/></svg><svg width="33" height="34" viewBox="0 0 33 34" id="logo" x="276" y="297" xmlns="http://www.w3.org/2000/svg"><g fill="#FFF" fill-rule="evenodd"><path d="M17.326 19.686h4.16c1.182 0 1.931-.65 1.931-1.695 0-.985-.749-1.695-1.932-1.695h-4.159c-.138 0-.256.118-.256.236v2.918c.02.138.118.236.256.236zm0 6.722h4.297c1.321 0 2.11-.67 2.11-1.853 0-1.025-.75-1.853-2.11-1.853h-4.297c-.138 0-.256.119-.256.237v3.213c.02.158.118.256.256.256z"/><path d="M32.544 1l-12.3 12.26h2.01c3.134 0 4.987 1.971 4.987 4.12 0 1.695-1.143 2.937-2.365 3.49-.197.078-.197.354.02.433 1.419.552 2.424 2.03 2.424 3.765 0 2.444-1.636 4.395-4.81 4.395h-8.712c-.138 0-.256-.118-.256-.236v-9.284L.039 33.386c-.177.178-.06.493.197.493h32.466a.219.219 0 0 0 .216-.217V1.177c.06-.217-.216-.335-.374-.177z"/></g></svg><svg width="110" height="25" viewBox="0 0 110 25" id="logo-alt" x="309" y="331" xmlns="http://www.w3.org/2000/svg"><path fill="#FFF" fill-rule="evenodd" d="M32.183 14.876c.044.06.13.082.195.046l1.223-.676v2.048h-3.788a.153.153 0 0 0-.152.154v1.38c0 .085.068.154.152.154h2.113c.058 0 .105.048.105.106v.93a.115.115 0 0 1-.038.088c-.376.33-1.093.66-1.86.66-1.644 0-2.828-1.266-2.828-2.982 0-1.714 1.184-2.98 2.827-2.98.887 0 1.62.482 2.05 1.072zm-17.785.97a.14.14 0 0 1-.14-.142V14.08a.14.14 0 0 1 .14-.141h2.257c.646 0 1.05.394 1.05.952 0 .586-.404.953-1.05.953h-2.257zm9.175 5.345c0 .07-.056.126-.125.126h-1.662a.126.126 0 0 1-.125-.126v-8.826c0-.07.056-.127.125-.127h1.662c.069 0 .125.057.125.127v8.826zM33.123.059a.3.3 0 0 1 .478.245v13.473c-.698-.929-1.81-1.689-3.469-1.689-2.639 0-4.793 1.824-4.793 4.697 0 2.859 2.154 4.696 4.793 4.696 1.425 0 2.586-.521 3.47-1.354v4.57a.302.302 0 0 1-.3.303H.3c-.29 0-.412-.375-.178-.548l12.223-9.035v5.759a.14.14 0 0 0 .14.141h4.734c1.724 0 2.613-1.088 2.613-2.463 0-.963-.548-1.788-1.31-2.103a.138.138 0 0 1-.007-.253c.654-.307 1.141-1.003 1.141-1.946 0-1.211-.875-2.314-2.585-2.314h-.425L33.124.06zM14.399 19.616a.14.14 0 0 1-.14-.142v-1.786a.14.14 0 0 1 .14-.141h2.338c.74 0 1.144.463 1.144 1.034 0 .654-.431 1.035-1.144 1.035h-2.338zm28.78-.276c.082.043.11.143.06.22-.67 1.03-1.727 1.914-3.392 1.914-2.559 0-4.546-1.906-4.546-4.697 0-2.804 1.987-4.696 4.546-4.696 1.666 0 2.737.86 3.384 1.89a.153.153 0 0 1-.058.216l-1.022.563a.146.146 0 0 1-.192-.054c-.436-.7-1.24-1.2-2.112-1.2-1.714 0-2.987 1.362-2.987 3.281 0 1.892 1.273 3.28 2.987 3.28.873 0 1.677-.512 2.112-1.202a.147.147 0 0 1 .19-.054l1.03.54zm5.369.718c-1.755 0-2.873-1.416-2.873-3.28 0-1.879 1.118-3.281 2.873-3.281 1.742 0 2.873 1.402 2.873 3.28 0 1.865-1.131 3.28-2.873 3.28zM47.32 12.24c3.264-.882 6.26 2.21 5.55 5.66-.437 2.118-2.108 3.574-4.322 3.574-2.6 0-4.433-1.988-4.433-4.697 0-2.259 1.274-4.016 3.205-4.537zm16.446-.01c.059 0 .106.049.106.108v8.865a.106.106 0 0 1-.106.107h-1.364a.106.106 0 0 1-.105-.107V14.3l-2.728 6.962a.076.076 0 0 1-.07.048h-.571a.076.076 0 0 1-.07-.048L56.115 14.3v6.903a.106.106 0 0 1-.105.107h-1.365a.106.106 0 0 1-.105-.107v-8.865c0-.06.047-.107.105-.107h1.972c.087 0 .166.054.198.136l2.397 6.23 2.384-6.23a.213.213 0 0 1 .198-.136h1.971zm20.147 0c.09 0 .162.074.162.165v1.074c0 .09-.072.164-.162.164H79.66a.163.163 0 0 0-.162.164v2.013c0 .09.072.164.162.164h4.16c.089 0 .162.074.162.164v1.074c0 .09-.073.164-.163.164h-4.16a.163.163 0 0 0-.161.164v2.204c0 .09.072.164.162.164h4.253c.09 0 .162.074.162.164v1.074c0 .09-.072.164-.162.164h-5.829a.163.163 0 0 1-.162-.164v-8.751c0-.09.073-.164.162-.164h5.83zm6.145 4.289H88.05a.162.162 0 0 1-.161-.163v-2.56c0-.09.072-.163.16-.163h2.008c.888 0 1.535.558 1.535 1.43 0 .884-.647 1.456-1.535 1.456zm1.236 1.178c-.109.027-.165.147-.105.243l1.933 3.122a.162.162 0 0 1-.137.248h-1.448a.16.16 0 0 1-.14-.08L89.512 18a.16.16 0 0 0-.139-.08H88.05a.162.162 0 0 0-.161.163v3.064c0 .09-.072.163-.161.163h-1.254a.162.162 0 0 1-.16-.163v-8.753c0-.09.071-.163.16-.163h3.785c1.777 0 2.948 1.157 2.948 2.845 0 1.494-.909 2.365-1.914 2.62zm14.288-4.064a.16.16 0 0 0-.159.16v2.02c0 .09.07.161.159.161h4.167a.16.16 0 0 1 .158.16v1.082a.16.16 0 0 1-.158.16h-4.167a.16.16 0 0 0-.159.16v2.212c0 .089.07.16.159.16h4.26a.16.16 0 0 1 .159.16v1.082a.16.16 0 0 1-.158.16h-5.837a.16.16 0 0 1-.159-.16v-8.759a.16.16 0 0 1 .159-.16h5.837a.16.16 0 0 1 .158.16v1.082a.16.16 0 0 1-.158.16h-4.261zm-3.342 5.67c.082.042.11.142.059.22-.669 1.03-1.727 1.913-3.392 1.913-2.558 0-4.545-1.906-4.545-4.697 0-2.803 1.987-4.696 4.545-4.696 1.667 0 2.737.86 3.384 1.89a.153.153 0 0 1-.057.216l-1.022.563a.146.146 0 0 1-.193-.054c-.436-.7-1.239-1.2-2.112-1.2-1.714 0-2.987 1.362-2.987 3.281 0 1.893 1.273 3.281 2.987 3.281.874 0 1.677-.512 2.113-1.203a.147.147 0 0 1 .19-.054l1.03.54zM75.397 12.23c.059 0 .106.048.106.107v8.865a.106.106 0 0 1-.106.107h-1.364a.106.106 0 0 1-.106-.107V14.3L71.2 21.262a.076.076 0 0 1-.07.048h-.57a.076.076 0 0 1-.07-.048L67.747 14.3v6.903a.106.106 0 0 1-.105.107h-1.365a.106.106 0 0 1-.105-.107v-8.865c0-.06.047-.107.105-.107h1.971c.088 0 .167.054.199.136l2.397 6.23 2.384-6.23a.213.213 0 0 1 .198-.136h1.971z"/></svg><svg width="33" height="34" viewBox="0 0 33 34" id="logo-dark" x="419" y="356" xmlns="http://www.w3.org/2000/svg"><g fill="#34313F" fill-rule="evenodd"><path d="M17.326 19.686h4.16c1.182 0 1.931-.65 1.931-1.695 0-.985-.749-1.695-1.932-1.695h-4.159c-.138 0-.256.118-.256.236v2.918c.02.138.118.236.256.236zm0 6.722h4.297c1.321 0 2.11-.67 2.11-1.853 0-1.025-.75-1.853-2.11-1.853h-4.297c-.138 0-.256.119-.256.237v3.213c.02.158.118.256.256.256z"/><path d="M32.544 1l-12.3 12.26h2.01c3.134 0 4.987 1.971 4.987 4.12 0 1.695-1.143 2.937-2.365 3.49-.197.078-.197.354.02.433 1.419.552 2.424 2.03 2.424 3.765 0 2.444-1.636 4.395-4.81 4.395h-8.712c-.138 0-.256-.118-.256-.236v-9.284L.039 33.386c-.177.178-.06.493.197.493h32.466a.219.219 0 0 0 .216-.217V1.177c.06-.217-.216-.335-.374-.177z"/></g></svg><svg width="22" height="20" viewBox="0 0 22 20" id="search-lg" x="452" y="390" xmlns="http://www.w3.org/2000/svg"><g fill="none" fill-rule="evenodd" stroke="#F6F7F9" stroke-width="3" transform="rotate(-50 8.428 5.639)"><ellipse cx="6.731" cy="7.627" rx="6.719" ry="6.793"/><path stroke-linecap="round" d="M6.232 15.103v7.339"/></g></svg><svg width="22" height="20" viewBox="0 0 22 20" id="search-lg-dark" x="474" y="410" xmlns="http://www.w3.org/2000/svg"><g fill="none" fill-rule="evenodd" stroke="#6D6E7A" stroke-width="3" transform="rotate(-50 8.428 5.639)"><ellipse cx="6.731" cy="7.627" rx="6.719" ry="6.793"/><path stroke-linecap="round" d="M6.232 15.103v7.339"/></g></svg><svg width="13" height="13" viewBox="0 0 13 13" id="search-sm" x="496" y="430" xmlns="http://www.w3.org/2000/svg"><g fill="none" fill-rule="evenodd" stroke="#F6F7F9" stroke-width="2" transform="rotate(-50 6.28 4.643)"><ellipse cx="4.602" cy="4.643" rx="4.065" ry="4.135"/><path stroke-linecap="round" d="M4.3 9.193v4.467"/></g></svg><svg width="13" height="13" viewBox="0 0 13 13" id="search-sm-grey" x="509" y="443" xmlns="http://www.w3.org/2000/svg"><g fill="none" fill-rule="evenodd" stroke="#8E919C" stroke-width="2" transform="rotate(-50 6.28 4.643)"><ellipse cx="4.602" cy="4.643" rx="4.065" ry="4.135"/><path stroke-linecap="round" d="M4.3 9.193v4.467"/></g></svg><svg width="12" height="13" viewBox="0 0 12 13" id="slash-blue" x="522" y="456" xmlns="http://www.w3.org/2000/svg"><path fill="none" stroke="#4B71FC" stroke-linecap="round" stroke-width="2" d="M11 1L1 12"/></svg><svg width="28" height="22" viewBox="0 0 28 22" id="sliders-lg-blue" x="534" y="469" xmlns="http://www.w3.org/2000/svg"><g fill="none" fill-rule="evenodd" transform="translate(1)"><path stroke="#4B71FC" stroke-linecap="square" stroke-width="2.25" d="M.5 3.613h25.035M.5 11.308h25.035M.5 18.957h25.035"/><circle cx="4.336" cy="3.613" r="2.879" fill="#4B71FC"/><circle cx="21.702" cy="11.308" r="2.88" fill="#4B71FC"/><circle cx="11.583" cy="18.977" r="2.88" fill="#4B71FC"/></g></svg><svg width="28" height="23" viewBox="0 0 28 23" id="sliders-lg-grey" x="562" y="491" xmlns="http://www.w3.org/2000/svg"><g fill="none" fill-rule="evenodd" transform="translate(1 .215)"><path stroke="#8E919C" stroke-linecap="square" stroke-width="2.25" d="M.5 3.613h25.035M.5 11.308h25.035M.5 18.957h25.035"/><circle cx="4.336" cy="3.613" r="2.879" fill="#8E919C"/><circle cx="21.702" cy="11.308" r="2.88" fill="#8E919C"/><circle cx="11.583" cy="18.977" r="2.88" fill="#8E919C"/></g></svg><svg width="28" height="23" viewBox="0 0 28 23" id="sliders-lg-lightgrey" x="590" y="514" xmlns="http://www.w3.org/2000/svg"><g fill="none" fill-rule="evenodd" opacity=".2" transform="translate(1 .215)"><path stroke="#8E919C" stroke-linecap="square" stroke-width="2.25" d="M.5 3.613h25.035M.5 11.308h25.035M.5 18.957h25.035"/><circle cx="4.336" cy="3.613" r="2.879" fill="#8E919C"/><circle cx="21.702" cy="11.308" r="2.88" fill="#8E919C"/><circle cx="11.583" cy="18.977" r="2.88" fill="#8E919C"/></g></svg><svg width="12" height="12" viewBox="0 0 12 12" id="star-sm-grey" x="618" y="537" xmlns="http://www.w3.org/2000/svg"><path fill="#8E919C" fill-rule="evenodd" d="M6.008 0L3.817 4.363H0L3.272 7.09 1.636 12 6 9.003 10.363 12 8.727 7.09l3.272-2.727H8.181z"/></svg></svg>