<?xml version="1.0" encoding="UTF-8" standalone="no"?>
<svg width="356px" height="103px" viewBox="0 0 356 103" version="1.1" xmlns="http://www.w3.org/2000/svg" xmlns:xlink="http://www.w3.org/1999/xlink">
    <!-- Generator: Sketch 47.1 (45422) - http://www.bohemiancoding.com/sketch -->
    <title>Group 19</title>
    <desc>Created with Sketch.</desc>
    <defs>
        <path d="M5,34 L351,34 L351,34 C353.761424,34 356,36.2385763 356,39 L356,137 L0,137 L0,39 L0,39 C-3.38176876e-16,36.2385763 2.23857625,34 5,34 Z" id="path-1"></path>
        <radialGradient cx="50%" cy="50%" fx="50%" fy="50%" r="56.4447172%" id="radialGradient-3">
            <stop stop-color="#FFFFFF" stop-opacity="0" offset="0%"></stop>
            <stop stop-color="#FFFFFF" stop-opacity="0.07" offset="100%"></stop>
        </radialGradient>
        <radialGradient cx="50%" cy="50%" fx="50%" fy="50%" r="57.9286635%" id="radialGradient-4">
            <stop stop-color="#FFFFFF" stop-opacity="0" offset="0%"></stop>
            <stop stop-color="#FFFFFF" stop-opacity="0.07" offset="100%"></stop>
        </radialGradient>
        <radialGradient cx="50%" cy="50%" fx="50%" fy="50%" r="50%" id="radialGradient-5">
            <stop stop-color="#FFFFFF" stop-opacity="0" offset="0%"></stop>
            <stop stop-color="#FFFFFF" stop-opacity="0.07" offset="100%"></stop>
        </radialGradient>
        <linearGradient x1="50%" y1="17.7838308%" x2="50%" y2="139.271573%" id="linearGradient-6">
            <stop stop-color="#FFFFFF" stop-opacity="0.19" offset="0%"></stop>
            <stop stop-color="#FFFFFF" stop-opacity="0" offset="100%"></stop>
        </linearGradient>
    </defs>
    <g id="Page-1" stroke="none" stroke-width="1" fill="none" fill-rule="evenodd">
        <g id="02-Help-Center-home-page" transform="translate(-847.000000, -1078.000000)">
            <g id="Group-19" transform="translate(847.000000, 1044.000000)">
                <mask id="mask-2" fill="white">
                    <use xlink:href="#path-1"></use>
                </mask>
                <use id="Rectangle-3-Copy-5" fill="#78B3FE" transform="translate(178.000000, 85.500000) scale(-1, 1) translate(-178.000000, -85.500000) " xlink:href="#path-1"></use>
                <path d="M373.320256,88.7938038 C373.320256,137.295676 334.001873,176.614059 285.5,176.614059 C236.998127,176.614059 197.679744,137.295676 197.679744,88.7938038 C197.679744,40.2919312 236.998127,0.973548226 285.5,0.973548226 C334.001873,0.973548226 373.320256,40.2919312 373.320256,88.7938038" id="Fill-3" fill="url(#radialGradient-3)" mask="url(#mask-2)"></path>
                <path d="M346.884383,88.7938038 C346.884383,122.695522 319.401718,150.178187 285.5,150.178187 C251.598282,150.178187 224.115617,122.695522 224.115617,88.7938038 C224.115617,54.8920859 251.598282,27.4094206 285.5,27.4094206 C319.401718,27.4094206 346.884383,54.8920859 346.884383,88.7938038" id="Fill-3" fill="url(#radialGradient-4)" mask="url(#mask-2)"></path>
                <path d="M322.884195,88.8062105 C322.884195,109.452967 306.146757,126.190405 285.5,126.190405 C264.853243,126.190405 248.115805,109.452967 248.115805,88.8062105 C248.115805,68.1594539 264.853243,51.422016 285.5,51.422016 C306.146757,51.422016 322.884195,68.1594539 322.884195,88.8062105" id="Fill-3" fill="url(#radialGradient-5)" mask="url(#mask-2)"></path>
                <path d="M281.817645,101.160736 L281.817645,141.200796 C281.817645,143.559208 283.466113,145.470703 285.5,145.470703 C287.533887,145.470703 289.182355,143.559208 289.182355,141.200796 L289.182355,101.160736 C294.506105,99.5763169 298.388242,94.6446338 298.388242,88.8062105 C298.388242,81.6882187 292.617992,75.9179688 285.5,75.9179688 C278.382008,75.9179688 272.611758,81.6882187 272.611758,88.8062105 C272.611758,94.6446338 276.493895,99.5763169 281.817645,101.160736 Z" id="Combined-Shape" fill="url(#linearGradient-6)" mask="url(#mask-2)"></path>
            </g>
        </g>
    </g>
</svg>