<?xml version="1.0" encoding="UTF-8" standalone="no"?>
<svg width="356px" height="103px" viewBox="0 0 356 103" version="1.1" xmlns="http://www.w3.org/2000/svg" xmlns:xlink="http://www.w3.org/1999/xlink">
    <!-- Generator: Sketch 47.1 (45422) - http://www.bohemiancoding.com/sketch -->
    <title>Group 42</title>
    <desc>Created with Sketch.</desc>
    <defs>
        <path d="M5,-2.61585458e-15 L351,-2.61585458e-15 L351,-1.77635684e-15 C353.761424,-2.28360083e-15 356,2.23857625 356,5 L356,103 L0,103 L0,5 L0,5 C-3.38176876e-16,2.23857625 2.23857625,-6.59818337e-15 5,-7.10542736e-15 Z" id="path-1"></path>
        <linearGradient x1="50%" y1="-12.8551685%" x2="50%" y2="100%" id="linearGradient-3">
            <stop stop-color="#FFFFFF" stop-opacity="0.13" offset="0%"></stop>
            <stop stop-color="#FFFFFF" stop-opacity="0" offset="100%"></stop>
        </linearGradient>
        <linearGradient x1="50%" y1="-14.1965261%" x2="50%" y2="100%" id="linearGradient-4">
            <stop stop-color="#FFFFFF" stop-opacity="0.13" offset="0%"></stop>
            <stop stop-color="#FFFFFF" stop-opacity="0" offset="100%"></stop>
        </linearGradient>
        <linearGradient x1="50%" y1="0%" x2="50%" y2="87.7865259%" id="linearGradient-5">
            <stop stop-color="#FFFFFF" stop-opacity="0.13" offset="0%"></stop>
            <stop stop-color="#FFFFFF" stop-opacity="0" offset="100%"></stop>
        </linearGradient>
    </defs>
    <g id="Page-1" stroke="none" stroke-width="1" fill="none" fill-rule="evenodd">
        <g id="02-Help-Center-home-page" transform="translate(-77.000000, -1078.000000)">
            <g id="Group-42" transform="translate(77.000000, 1078.000000)">
                <mask id="mask-2" fill="white">
                    <use xlink:href="#path-1"></use>
                </mask>
                <use id="Rectangle-3-Copy-3" fill="#7A6AF8" transform="translate(178.000000, 51.500000) scale(-1, 1) translate(-178.000000, -51.500000) " xlink:href="#path-1"></use>
                <path d="M314.225941,90.7405964 C312.239012,84.7528517 298.38623,81.1717076 283.329249,75.4957965 L283.329249,69.6176878 C290.179704,65.4551133 294.84912,57.2036542 294.84912,47.6994686 C294.84912,34.0048502 285.16071,22.903753 273.210383,22.903753 C261.259157,22.903753 251.571646,34.0048502 251.571646,47.6994686 C251.571646,57.7311652 256.773067,66.3654518 264.25258,70.270112 L264.25258,75.4957965 C250.88687,80.5723041 234.175464,84.7528517 232.193029,90.7405964 C229.914936,97.61172 229.914936,113.649135 229.914936,113.649135 L273.196005,113.649135 L316.504932,113.649135 C316.504932,113.649135 316.504932,97.61172 314.225941,90.7405964" id="Fill-1" fill="url(#linearGradient-3)" mask="url(#mask-2)"></path>
                <path d="M365.698247,71.0656522 C363.934816,65.7514335 351.640252,62.5731112 338.276942,57.5356498 L338.276942,52.3187349 C344.356829,48.6243839 348.501011,41.3010827 348.501011,32.8659669 C348.501011,20.7117753 339.902393,10.859375 329.296287,10.859375 C318.689384,10.859375 310.091564,20.7117753 310.091564,32.8659669 C310.091564,41.7692571 314.707908,49.4323237 321.346095,52.8977718 L321.346095,57.5356498 C309.483815,62.041131 294.652176,65.7514335 292.892733,71.0656522 C290.870889,77.1638836 290.870889,91.3973439 290.870889,91.3973439 L329.283526,91.3973439 L367.720888,91.3973439 C367.720888,91.3973439 367.720888,77.1638836 365.698247,71.0656522" id="Fill-1" fill="url(#linearGradient-4)" mask="url(#mask-2)"></path>
                <path d="M260.529516,59.0853482 C258.723175,53.6418178 246.129446,50.3861569 232.440964,45.2261182 L232.440964,39.8822593 C238.668795,36.0980131 242.913817,28.5965129 242.913817,19.9561441 C242.913817,7.50620276 234.105967,-2.5859375 223.241782,-2.5859375 C212.37678,-2.5859375 203.569747,7.50620276 203.569747,19.9561441 C203.569747,29.0760795 208.298421,36.9256127 215.098136,40.475386 L215.098136,45.2261182 C202.947209,49.841232 187.75467,53.6418178 185.952414,59.0853482 C183.881373,65.3319688 183.881373,79.9117741 183.881373,79.9117741 L223.22871,79.9117741 L262.601374,79.9117741 C262.601374,79.9117741 262.601374,65.3319688 260.529516,59.0853482" id="Fill-1" fill="url(#linearGradient-5)" mask="url(#mask-2)"></path>
            </g>
        </g>
    </g>
</svg>