<?xml version="1.0" encoding="UTF-8"?>
<svg width="30px" height="30px" viewBox="0 0 30 30" version="1.1" xmlns="http://www.w3.org/2000/svg" xmlns:xlink="http://www.w3.org/1999/xlink">
    <!-- Generator: Sketch 48.1 (47250) - http://www.bohemiancoding.com/sketch -->
    <title>alert-info</title>
    <desc>Created with Sketch.</desc>
    <defs></defs>
    <g id="Page-1" stroke="none" stroke-width="1" fill="none" fill-rule="evenodd">
        <g id="alert-info" fill="#437EAF">
            <g id="Layer_1">
                <g id="Info_2_x2C__About_2">
                    <path d="M15,0 C6.71625,0 0,6.71625 0,15 C0,23.28375 6.71625,30 15,30 C23.28375,30 30,23.28375 30,15 C30,6.71625 23.28375,0 15,0 L15,0 Z M15,26.25 C8.795625,26.25 3.75,21.2025 3.75,15 C3.75,8.7975 8.795625,3.75 15,3.75 C21.2025,3.75 26.25,8.7975 26.25,15 C26.25,21.2025 21.2025,26.25 15,26.25 L15,26.25 Z" id="Shape"></path>
                    <path d="M15.9375,7.5 L14.0625,7.5 C13.545,7.5 13.125,7.92 13.125,8.4375 L13.125,10.3125 C13.125,10.83 13.545,11.25 14.0625,11.25 L15.9375,11.25 C16.455,11.25 16.875,10.83 16.875,10.3125 L16.875,8.4375 C16.875,7.92 16.455,7.5 15.9375,7.5 L15.9375,7.5 Z" id="Shape"></path>
                    <path d="M15.9375,13.125 L14.0625,13.125 C13.545,13.125 13.125,13.545 13.125,14.0625 L13.125,21.5625 C13.125,22.08 13.545,22.5 14.0625,22.5 L15.9375,22.5 C16.455,22.5 16.875,22.08 16.875,21.5625 L16.875,14.0625 C16.875,13.545 16.455,13.125 15.9375,13.125 L15.9375,13.125 Z" id="Shape"></path>
                </g>
            </g>
        </g>
    </g>
</svg>