<?xml version="1.0" encoding="UTF-8"?>
<svg width="30px" height="30px" viewBox="0 0 30 30" version="1.1" xmlns="http://www.w3.org/2000/svg" xmlns:xlink="http://www.w3.org/1999/xlink">
    <!-- Generator: Sketch 48.1 (47250) - http://www.bohemiancoding.com/sketch -->
    <title>alert-success</title>
    <desc>Created with Sketch.</desc>
    <defs></defs>
    <g id="Page-1" stroke="none" stroke-width="1" fill="none" fill-rule="evenodd">
        <g id="alert-success" fill="#597051">
            <g id="Layer_1">
                <g id="Checkmark_2">
                    <path d="M0,15 C0,23.28375 6.71625,30 15,30 C23.28375,30 30,23.28375 30,15 C30,6.71625 23.28375,0 15,0 C6.71625,0 0,6.71625 0,15 Z M15,26.25 C8.795625,26.25 3.75,21.204375 3.75,15 C3.75,8.795625 8.795625,3.75 15,3.75 C21.204375,3.75 26.25,8.795625 26.25,15 C26.25,21.204375 21.204375,26.25 15,26.25 L15,26.25 Z" id="Shape"></path>
                    <path d="M19.438125,9.9 L13.096875,16.24125 L10.561875,13.70625 C9.860625,13.005 8.72625,13.005 8.025,13.70625 C7.32375,14.405625 7.32375,15.541875 8.025,16.243125 L11.83125,20.04375 C12.530625,20.745 13.666875,20.745 14.368125,20.04375 L21.976875,12.435 C22.678125,11.73375 22.678125,10.599375 21.976875,9.898125 C21.275625,9.196875 20.139375,9.19875 19.438125,9.9 L19.438125,9.9 Z" id="Shape"></path>
                </g>
            </g>
        </g>
    </g>
</svg>