<?xml version="1.0" encoding="UTF-8"?>
<svg width="30px" height="30px" viewBox="0 0 30 30" version="1.1" xmlns="http://www.w3.org/2000/svg" xmlns:xlink="http://www.w3.org/1999/xlink">
    <!-- Generator: Sketch 48.1 (47250) - http://www.bohemiancoding.com/sketch -->
    <title>alert-danger</title>
    <desc>Created with Sketch.</desc>
    <defs></defs>
    <g id="Page-1" stroke="none" stroke-width="1" fill="none" fill-rule="evenodd">
        <g id="alert-danger" fill="#D9534F">
            <g id="Layer_1">
                <g id="Exclamation_Point_1_x2C__Warning_1_x2C__Caution_1_1_">
                    <path d="M15,0 C6.71625,0 0,6.71625 0,15 C0,23.28375 6.71625,30 15,30 C23.28375,30 30,23.28375 30,15 C30,6.71625 23.28375,0 15,0 L15,0 Z M15,26.25 C8.795625,26.25 3.75,21.2025 3.75,15 C3.75,8.7975 8.795625,3.75 15,3.75 C21.200625,3.75 26.25,8.7975 26.25,15 C26.25,21.2025 21.200625,26.25 15,26.25 L15,26.25 Z" id="Shape"></path>
                    <path d="M15.9375,5.625 L14.0625,5.625 C13.545,5.625 13.125,6.045 13.125,6.5625 L13.125,17.8125 C13.125,18.33 13.545,18.75 14.0625,18.75 L15.9375,18.75 C16.455,18.75 16.875,18.33 16.875,17.8125 L16.875,6.5625 C16.875,6.045 16.455,5.625 15.9375,5.625 L15.9375,5.625 Z" id="Shape"></path>
                    <path d="M14.0625,20.625 C13.545,20.625 13.125,21.045 13.125,21.5625 L13.125,23.4375 C13.125,23.955 13.545,24.375 14.0625,24.375 L15.9375,24.375 C16.455,24.375 16.875,23.955 16.875,23.4375 L16.875,21.5625 C16.875,21.045 16.455,20.625 15.9375,20.625 L14.0625,20.625 Z" id="Shape"></path>
                </g>
            </g>
        </g>
    </g>
</svg>